<?xml version="1.0" encoding="UTF-8"?>
<svg width="179px" height="32px" viewBox="0 0 179 32" version="1.1" xmlns="http://www.w3.org/2000/svg" xmlns:xlink="http://www.w3.org/1999/xlink">
    <title>logo</title>
    <g id="💻-/-Prototype" stroke="none" stroke-width="1" fill="none" fill-rule="evenodd">
        <g id="Style-Guide-/-01" transform="translate(-631.000000, -16.000000)">
            <g id="logo" transform="translate(631.000000, 16.000000)">
                <g id="logomark-01" fill="#FFD766">
                    <path d="M8.01529221,25.1428571 C11.1658433,25.1428571 17.3303615,22.520525 17.3303615,19.2857143 C17.3303615,16.0509036 11.1658433,13.4285714 8.01529221,13.4285714 C4.86474114,13.4285714 2.31071487,16.0509036 2.31071487,19.2857143 C2.31071487,22.520525 4.86474114,25.1428571 8.01529221,25.1428571 Z" id="Oval"></path>
                    <path d="M36.5381789,0 C2.01269767,6.16977542 -7.75143125,9.25466313 7.24579212,9.25466313 C29.7416272,9.25466313 25.0637257,29.7543107 7.99360177,29.7543107 C-9.07652217,29.7543107 23.1452988,34.9162224 28.6401966,29.0650734 C32.3034618,25.1643075 34.9361226,15.4759497 36.5381789,0 Z" id="Oval"></path>
                </g>
                <path d="M60.1368598,13.6967449 L54.0365726,13.6967449 L54.0365726,6.26548588 L49.6,6.26548588 L49.6,25.6754908 L54.0365726,25.6754908 L54.0365726,17.966946 L60.1368598,17.966946 L60.1368598,25.6754908 L64.5734324,25.6754908 L64.5734324,6.26548588 L60.1368598,6.26548588 L60.1368598,13.6967449 Z M71.473227,9.87020108 C72.4714558,8.87197226 72.4714558,7.31917186 71.473227,6.34867162 C70.5027267,5.35044279 68.9499263,5.35044279 67.9516975,6.34867162 C66.9811972,7.31917186 66.9811972,8.87197226 67.9516975,9.87020108 C68.9499263,10.8407013 70.5027267,10.8407013 71.473227,9.87020108 Z M71.8059699,25.6754908 L71.8059699,11.8112016 L67.6466831,11.8112016 L67.6466831,25.6754908 L71.8059699,25.6754908 Z M84.9169661,13.2253591 C83.9464658,12.0330302 82.6154941,11.4230015 80.8685936,11.4230015 C78.9275931,11.4230015 77.291607,12.1162159 75.9883638,13.5026449 C74.6851206,14.8613452 74.0473633,16.5250599 74.0473633,18.4660604 C74.0473633,20.4070609 74.6851206,22.0707756 75.9883638,23.4572045 C77.291607,24.8159049 78.9275931,25.5091193 80.8685936,25.5091193 C82.6154941,25.5091193 83.9464658,24.8990906 84.9169661,23.7067617 L84.9169661,24.9822763 C84.9169661,26.8955482 83.7523658,27.9492342 81.7836367,27.9492342 C80.314022,27.9492342 79.2603361,27.3669341 78.6225788,26.2023338 L75.0733207,28.2542486 C76.3211067,30.5002634 78.5116644,31.6094066 81.6449938,31.6094066 C83.66918,31.6094066 85.4160805,31.054835 86.830238,29.9179633 C88.2443955,28.8088202 88.9653385,27.172834 88.9653385,24.9822763 L88.9653385,11.8112016 L84.9169661,11.8112016 L84.9169661,13.2253591 Z M79.1494218,20.795261 C78.5116644,20.2129608 78.2066501,19.4365606 78.2066501,18.4660604 C78.2066501,17.4955602 78.5116644,16.71916 79.1494218,16.1368598 C79.7871791,15.5545597 80.5913078,15.2495453 81.5618081,15.2495453 C82.5323083,15.2495453 83.3364371,15.5545597 83.9741944,16.1368598 C84.6119517,16.71916 84.9169661,17.4955602 84.9169661,18.4660604 C84.9169661,19.4365606 84.6119517,20.2129608 83.9741944,20.795261 C83.3364371,21.3775611 82.5323083,21.6825755 81.5618081,21.6825755 C80.5913078,21.6825755 79.7871791,21.3775611 79.1494218,20.795261 Z M100.02442,11.4230015 C98.2220623,11.4230015 96.8910905,11.977573 96.0592332,13.1144448 L96.0592332,6.26548588 L91.8999464,6.26548588 L91.8999464,25.6754908 L96.0592332,25.6754908 L96.0592332,18.1055889 C96.0592332,16.2200455 97.057462,15.2495453 98.637991,15.2495453 C100.052148,15.2495453 101.050377,16.1368598 101.050377,17.7728459 L101.050377,25.6754908 L105.209664,25.6754908 L105.209664,17.1628172 C105.209664,15.3604596 104.71055,13.9740307 103.712321,12.9480733 C102.741821,11.9221159 101.494035,11.4230015 100.02442,11.4230015 Z M116.241017,11.4230015 C114.466388,11.4230015 113.079959,11.977573 112.109459,13.1144448 L112.109459,6.26548588 L107.950172,6.26548588 L107.950172,25.6754908 L112.109459,25.6754908 L112.109459,24.3722476 C113.079959,25.5091193 114.466388,26.0636909 116.241017,26.0636909 C118.071103,26.0636909 119.623903,25.3704764 120.927147,23.9563189 C122.23039,22.5421614 122.868147,20.795261 122.868147,18.7433462 C122.868147,16.6914314 122.23039,14.9722595 120.927147,13.558102 C119.623903,12.1439445 118.071103,11.4230015 116.241017,11.4230015 Z M113.024502,21.2111897 C112.414473,20.6011609 112.109459,19.7693036 112.109459,18.7433462 C112.109459,17.7173888 112.414473,16.8855314 113.024502,16.2755027 C113.662259,15.665474 114.438659,15.3604596 115.409159,15.3604596 C116.37966,15.3604596 117.15606,15.665474 117.766089,16.2755027 C118.403846,16.8855314 118.70886,17.7173888 118.70886,18.7433462 C118.70886,19.7693036 118.403846,20.6011609 117.766089,21.2111897 C117.15606,21.8212184 116.37966,22.1262328 115.409159,22.1262328 C114.438659,22.1262328 113.662259,21.8212184 113.024502,21.2111897 Z M138.668815,20.4070609 C138.77973,19.8802179 138.835187,19.3256463 138.835187,18.7433462 C138.835187,16.6637028 138.169701,14.9168024 136.811001,13.5303734 C135.480029,12.1162159 133.816314,11.4230015 131.792128,11.4230015 C129.629299,11.4230015 127.85467,12.1162159 126.468241,13.5303734 C125.109541,14.9168024 124.416326,16.6637028 124.416326,18.7433462 C124.416326,20.8507181 125.109541,22.5976186 126.495969,23.9840475 C127.910127,25.3704764 129.767942,26.0636909 132.097142,26.0636909 C134.759086,26.0636909 136.783272,25.1209192 138.141972,23.2076473 L134.814543,21.2943754 C134.176786,21.9875899 133.289471,22.3480614 132.152599,22.3480614 C130.405699,22.3480614 129.296556,21.7103041 128.82517,20.4070609 L138.668815,20.4070609 Z M128.741984,17.3014601 C129.157913,15.8318454 130.156142,15.1109024 131.764399,15.1109024 C133.3172,15.1109024 134.2877,15.8318454 134.703629,17.3014601 L128.741984,17.3014601 Z M151.003411,13.1144448 C150.032911,11.977573 148.646482,11.4230015 146.871853,11.4230015 C145.041767,11.4230015 143.488967,12.1439445 142.185723,13.558102 C140.88248,14.9722595 140.244723,16.6914314 140.244723,18.7433462 C140.244723,20.795261 140.88248,22.5421614 142.185723,23.9563189 C143.488967,25.3704764 145.041767,26.0636909 146.871853,26.0636909 C148.646482,26.0636909 150.032911,25.5091193 151.003411,24.3722476 L151.003411,25.6754908 L155.162698,25.6754908 L155.162698,11.8112016 L151.003411,11.8112016 L151.003411,13.1144448 Z M145.319053,21.2111897 C144.709024,20.6011609 144.40401,19.7693036 144.40401,18.7433462 C144.40401,17.7173888 144.709024,16.8855314 145.319053,16.2755027 C145.929081,15.665474 146.73321,15.3604596 147.703711,15.3604596 C148.674211,15.3604596 149.47834,15.665474 150.088368,16.2755027 C150.698397,16.8855314 151.003411,17.7173888 151.003411,18.7433462 C151.003411,19.7693036 150.698397,20.6011609 150.088368,21.2111897 C149.47834,21.8212184 148.674211,22.1262328 147.703711,22.1262328 C146.73321,22.1262328 145.929081,21.8212184 145.319053,21.2111897 Z M173.62531,11.4230015 C175.205839,11.4230015 176.481353,11.9498445 177.451854,13.0035304 C178.422354,14.0294878 178.89374,15.4159168 178.89374,17.1628172 L178.89374,25.6754908 L174.734453,25.6754908 L174.734453,17.5232887 C174.734453,16.1091312 174.041239,15.2495453 172.737995,15.2495453 C171.379295,15.2495453 170.575166,16.2200455 170.575166,17.8560317 L170.575166,25.6754908 L166.41588,25.6754908 L166.41588,17.5232887 C166.41588,16.1091312 165.722665,15.2495453 164.419422,15.2495453 C163.060722,15.2495453 162.256593,16.2200455 162.256593,17.8560317 L162.256593,25.6754908 L158.097306,25.6754908 L158.097306,11.8112016 L162.256593,11.8112016 L162.256593,13.0867162 C163.005264,11.977573 164.25305,11.4230015 165.972222,11.4230015 C167.58048,11.4230015 168.800537,12.0330302 169.604666,13.2530877 C170.464252,12.0330302 171.795224,11.4230015 173.62531,11.4230015 Z" id="Highbeam" fill="#FFFFFF" fill-rule="nonzero"></path>
            </g>
        </g>
    </g>
</svg>