<?xml version="1.0" encoding="UTF-8"?>
<svg width="24px" height="28px" viewBox="0 0 24 28" version="1.1" xmlns="http://www.w3.org/2000/svg" xmlns:xlink="http://www.w3.org/1999/xlink">
    <title>Sidebar / navbar / icons /icon-notifications</title>
    <g id="Symbols" stroke="none" stroke-width="1" fill="none" fill-rule="evenodd">
        <g id="Sidebar-/-navbar-/-navbar" transform="translate(-20.000000, -834.000000)" fill-rule="nonzero">
            <g id="Group" transform="translate(16.000000, 832.000000)">
                <rect id="frame" x="0" y="0" width="32" height="32"></rect>
                <g id="bell" transform="translate(4.000000, 2.000000)" fill="#FFFFFF">
                    <path d="M11.9732739,25.6570156 C11.0293096,25.6570156 10.2628062,24.8883742 10.2628062,23.9449443 L8.55233853,23.9449443 C8.55233853,25.8323385 10.0874833,27.3674833 11.9732739,27.3674833 C13.8590646,27.3674833 15.3942094,25.8323385 15.3942094,23.9449443 L13.6837416,23.9449443 C13.6837416,24.8883742 12.9172383,25.6570156 11.9732739,25.6570156 Z M23.165078,17.8963029 C21.6705568,16.4734076 20.5277506,14.9842316 20.5277506,9.93674833 C20.5277506,5.68249443 17.1394209,2.21291759 12.8285078,1.79331849 L12.8285078,0.855233853 C12.8285078,0.382717149 12.4457906,0 11.9732739,0 C11.5007572,0 11.1180401,0.382717149 11.1180401,0.855233853 L11.1180401,1.79385301 C6.80712695,2.21345212 3.41879733,5.68249443 3.41879733,9.93674833 C3.41879733,14.9836971 2.27545657,16.4734076 0.780935412,17.8963029 C0.0342093541,18.607216 -0.201514477,19.6821381 0.179599109,20.6346548 C0.568730512,21.6074833 1.50521158,22.2360802 2.56570156,22.2360802 L21.3808463,22.2360802 C22.4413363,22.2360802 23.3778174,21.6069488 23.7669488,20.6341203 C24.1480624,19.6816036 23.911804,18.607216 23.165078,17.8963029 Z M21.3808463,20.5256125 L2.56570156,20.5256125 C1.80507795,20.5256125 1.42503341,19.6452561 1.96062361,19.1353229 C3.82396437,17.3612472 5.12926503,15.3755011 5.12926503,9.93728285 C5.12926503,6.33567929 8.19046771,3.42093541 11.9732739,3.42093541 C15.7555457,3.42093541 18.8172829,6.33514477 18.8172829,9.93674833 C18.8172829,15.3541203 20.1113586,17.3505568 21.9859243,19.1347884 C22.5236526,19.6473942 22.1382628,20.5256125 21.3808463,20.5256125 Z" id="Shape"></path>
                </g>
            </g>
        </g>
    </g>
</svg>