<?xml version="1.0" encoding="UTF-8"?>
<svg width="24px" height="24px" viewBox="0 0 24 24" version="1.1" xmlns="http://www.w3.org/2000/svg" xmlns:xlink="http://www.w3.org/1999/xlink">
    <title>Sidebar / navbar / icons /icon-search</title>
    <g id="Symbols" stroke="none" stroke-width="1" fill="none" fill-rule="evenodd">
        <g id="Sidebar-/-navbar-/-navbar" transform="translate(-20.000000, -354.000000)" fill-rule="nonzero">
            <g id="Group" transform="translate(16.000000, 350.000000)">
                <rect id="frame" x="0" y="0" width="32" height="32"></rect>
                <g id="search.1" transform="translate(4.000000, 4.000000)" fill="#FFFFFF">
                    <path d="M23.7894737,22.5309942 L17.754386,16.4959064 C17.6467836,16.3883041 17.5064327,16.3321637 17.3567251,16.3321637 L16.8748538,16.3321637 C18.4795322,14.5964912 19.4619883,12.2807018 19.4619883,9.73099415 C19.4619883,4.35555556 15.1064327,0 9.73099415,0 C4.35555556,0 0,4.35555556 0,9.73099415 C0,15.1064327 4.35555556,19.4619883 9.73099415,19.4619883 C12.2807018,19.4619883 14.5964912,18.4795322 16.3321637,16.8795322 L16.3321637,17.3567251 C16.3321637,17.5064327 16.3929825,17.6467836 16.4959064,17.754386 L22.5309942,23.7894737 C22.7508772,24.0093567 23.1064327,24.0093567 23.3263158,23.7894737 L23.7894737,23.3263158 C24.0093567,23.1064327 24.0093567,22.7508772 23.7894737,22.5309942 Z M9.73099415,17.9649123 C5.17894737,17.9649123 1.49707602,14.2830409 1.49707602,9.73099415 C1.49707602,5.17894737 5.17894737,1.49707602 9.73099415,1.49707602 C14.2830409,1.49707602 17.9649123,5.17894737 17.9649123,9.73099415 C17.9649123,14.2830409 14.2830409,17.9649123 9.73099415,17.9649123 Z" id="Shape"></path>
                </g>
            </g>
        </g>
    </g>
</svg>