<?xml version="1.0" encoding="UTF-8"?>
<svg width="20px" height="26px" viewBox="0 0 20 26" version="1.1" xmlns="http://www.w3.org/2000/svg" xmlns:xlink="http://www.w3.org/1999/xlink">
    <title>Sidebar / navbar / icons /icon-warehouse</title>
    <g id="Symbols" stroke="none" stroke-width="1" fill="none" fill-rule="evenodd">
        <g id="Sidebar-/-navbar-/-navbar" transform="translate(-22.000000, -97.000000)" fill-rule="nonzero">
            <g id="Group" transform="translate(16.000000, 94.000000)">
                <rect id="frame" x="0" y="0" width="32" height="32"></rect>
                <path d="M25.265625,7.9755907 L20.8958333,3.71587581 C20.4270833,3.2589338 19.7916667,3 19.1302083,3 L8.5,3 C7.11979167,3.00507713 6,4.09666081 6,5.44210115 L6,26.562976 C6,27.9084163 7.11979167,29 8.5,29 L23.5,29 C24.8802083,29 26,27.9084163 26,26.562976 L26,9.70181605 C26,9.05702011 25.734375,8.43253271 25.265625,7.9755907 Z M24.0885417,9.12809998 C24.1979167,9.23471978 24.2708333,9.36164812 24.3072917,9.50380785 L19.3333333,9.50380785 L19.3333333,4.65514548 C19.4791667,4.69068541 19.609375,4.76176528 19.71875,4.86838508 L24.0885417,9.12809998 Z M23.5,27.3753173 L8.5,27.3753173 C8.04166667,27.3753173 7.66666667,27.0097637 7.66666667,26.562976 L7.66666667,5.44210115 C7.66666667,4.99531342 8.04166667,4.62975981 8.5,4.62975981 L17.6666667,4.62975981 L17.6666667,9.90997852 C17.6666667,10.5852373 18.2239583,11.1284905 18.9166667,11.1284905 L24.3333333,11.1284905 L24.3333333,26.562976 C24.3333333,27.0097637 23.9583333,27.3753173 23.5,27.3753173 Z" id="Shape" fill="#FFFFFF"></path>
            </g>
        </g>
    </g>
</svg>