<?xml version="1.0" encoding="UTF-8"?>
<svg width="24px" height="24px" viewBox="0 0 24 24" version="1.1" xmlns="http://www.w3.org/2000/svg" xmlns:xlink="http://www.w3.org/1999/xlink">
    <title>Sidebar / navbar / icons /icon-scheduler</title>
    <g id="Symbols" stroke="none" stroke-width="1" fill="none" fill-rule="evenodd">
        <g id="Sidebar-/-navbar-/-navbar" transform="translate(-20.000000, -162.000000)" fill-rule="nonzero">
            <g id="Group" transform="translate(16.000000, 158.000000)">
                <rect id="frame" x="0" y="0" width="32" height="32"></rect>
                <g id="alarm-clock" transform="translate(4.000000, 4.000000)" fill="#FFFFFF">
                    <path d="M1.5,5.25 C1.50232495,3.17989598 3.17989598,1.50232495 5.25,1.5 C6.10508705,1.50305017 6.93292857,1.80107312 7.59375,2.34375 C8.11914791,2.13681416 8.65864305,1.9676345 9.208125,1.8375 C8.24484375,0.7228125 6.8371875,0 5.25,0 C2.35200406,0.00361571967 0.00361571967,2.35200406 0,5.25 C0,6.4621875 0.42984375,7.56609375 1.125,8.45578125 C1.36161702,7.94281967 1.63417021,7.44721147 1.940625,6.97265625 C1.65591743,6.4427863 1.5046761,5.85149705 1.5,5.25 Z M18.75,0 C17.1628125,0 15.7551562,0.7228125 14.791875,1.83984375 C15.341357,1.96997825 15.8808521,2.13915791 16.40625,2.34609375 C17.0670714,1.80341687 17.894913,1.50539392 18.75,1.50234375 C20.820104,1.5046687 22.4976751,3.18223973 22.5,5.25234375 C22.4959008,5.8536834 22.3453054,6.44496349 22.06125,6.975 C22.3669655,7.4488548 22.6388898,7.94367549 22.875,8.45578125 C23.5682813,7.56515625 24,6.4621875 24,5.25 C23.9963843,2.35200406 21.6479959,0.00361571967 18.75,0 Z M12,3 C6.20109375,3 1.5,7.70109375 1.5,13.5 C1.49865384,16.0250957 2.41183579,18.4652431 4.070625,20.3690625 L1.6096875,22.828125 C1.53927111,22.8984631 1.499705,22.993909 1.499705,23.0934375 C1.499705,23.192966 1.53927111,23.2884119 1.6096875,23.35875 L2.13984375,23.8889062 C2.21018185,23.9593226 2.30562778,23.9988887 2.40515625,23.9988887 C2.50468472,23.9988887 2.60013065,23.9593226 2.67046875,23.8889062 L5.1309375,21.4279687 C9.06899105,24.8554176 14.9310089,24.8554176 18.8690625,21.4279687 L21.328125,23.8903125 C21.3984631,23.9607289 21.493909,24.000295 21.5934375,24.000295 C21.692966,24.000295 21.7884119,23.9607289 21.85875,23.8903125 L22.3889062,23.3601562 C22.4593226,23.2898182 22.4988887,23.1943722 22.4988887,23.0948437 C22.4988887,22.9953153 22.4593226,22.8998693 22.3889062,22.8295312 L19.9279687,20.3690625 C21.5872668,18.4654461 22.5009564,16.0252771 22.5000008,13.5 C22.5000008,7.70109375 17.7989062,3 12,3 L12,3 Z M12,22.5 C7.03734375,22.5 3,18.4626563 3,13.5 C3,8.53734375 7.03734375,4.5 12,4.5 C16.9626563,4.5 21,8.53734375 21,13.5 C21,18.4626563 16.9626563,22.5 12,22.5 Z M12.6740625,13.8895313 L12.6740625,7.875 C12.6740625,7.66789322 12.5061693,7.5 12.2990625,7.5 L11.5490625,7.5 C11.3419557,7.5 11.1740625,7.66789322 11.1740625,7.875 L11.1740625,14.25 C11.1742047,14.4775708 11.2776651,14.6927683 11.4553125,14.835 L14.9123437,17.600625 C14.9900252,17.6628324 15.0892482,17.6916101 15.1881592,17.68062 C15.2870701,17.6696299 15.377556,17.6197734 15.4396875,17.5420313 L15.9084375,16.9560938 C15.9706449,16.8784123 15.9994226,16.7791893 15.9884325,16.6802783 C15.9774424,16.5813674 15.9275859,16.4908815 15.8498437,16.42875 L12.6740625,13.8895313 Z" id="Shape"></path>
                </g>
            </g>
        </g>
    </g>
</svg>