<?xml version="1.0" encoding="UTF-8"?>
<svg width="24px" height="24px" viewBox="0 0 24 24" version="1.1" xmlns="http://www.w3.org/2000/svg" xmlns:xlink="http://www.w3.org/1999/xlink">
    <title>Sidebar / navbar / icons /icon-add</title>
    <g id="Symbols" stroke="none" stroke-width="1" fill="none" fill-rule="evenodd">
        <g id="Sidebar-/-navbar-/-navbar" transform="translate(-20.000000, -290.000000)" fill-rule="nonzero">
            <g id="Group" transform="translate(16.000000, 286.000000)">
                <rect id="frame" x="0" y="0" width="32" height="32"></rect>
                <g id="file-import" transform="translate(4.000000, 4.000000)" fill="#FFFFFF">
                    <path d="M23.3390625,4.5928125 L19.4071875,0.6609375 C18.9853125,0.2390625 18.4134375,0 17.8185937,0 L8.24953125,0 C7.0078125,0.0046875 6,1.0125 6,2.25421875 L6,13.5 L0.375,13.5 C0.1678125,13.5 0,13.6678125 0,13.875 L0,14.625 C0,14.8321875 0.1678125,15 0.375,15 L12,15 L12,17.4689062 C12,17.9835938 12.2990625,18.4321875 12.7823437,18.639375 C13.4821875,18.9417187 14.0423438,18.5639062 14.2298438,18.3867188 L17.5917187,15.1935937 C17.8551563,14.94375 18.0004687,14.6085937 18.0004687,14.2504687 C18.0004687,13.8923438 17.855625,13.5567187 17.593125,13.3078125 L14.2284375,10.1128125 C13.8403125,9.7471875 13.2717187,9.6496875 12.7828125,9.860625 C12.2995312,10.0678125 12.0004687,10.5159375 12.0004687,11.0310938 L12.0004687,13.5 L7.5,13.5 L7.5,2.25421875 C7.5,1.84171875 7.8375,1.5 8.25,1.5 L16.501875,1.5 L16.501875,6.37828125 C16.501875,7.00171875 17.0034375,7.5 17.626875,7.5 L22.5009375,7.5 L22.5009375,21.7504687 C22.5009375,22.1629688 22.1634375,22.5004687 21.7509375,22.5004687 L8.24953125,22.5004687 C7.83703125,22.5004687 7.49953125,22.1629688 7.49953125,21.7504687 L7.49953125,16.5 L6,16.5 L6,21.7504687 C6,22.9921875 7.0078125,24 8.24953125,24 L21.7504687,24 C22.9921875,24 24,22.9921875 24,21.7504687 L24,6.18609375 C24,5.59125 23.7609375,5.0146875 23.3390625,4.5928125 Z M13.5,11.49 L16.40625,14.25 L13.5,17.01 L13.5,11.49 Z M18.0014062,6.00328125 L18.0014062,1.52765625 C18.1326563,1.56046875 18.2498438,1.62609375 18.3482812,1.72453125 L22.2801563,5.65640625 C22.3785938,5.75484375 22.4442188,5.87203125 22.4770312,6.00328125 L18.0014062,6.00328125 L18.0014062,6.00328125 Z" id="Shape"></path>
                </g>
            </g>
        </g>
    </g>
</svg>