<?xml version="1.0" encoding="UTF-8"?>
<svg width="34px" height="34px" viewBox="0 0 34 34" version="1.1" xmlns="http://www.w3.org/2000/svg" xmlns:xlink="http://www.w3.org/1999/xlink">
    <title>Sidebar / navbar / icons /avatar-default-icon</title>
    <g id="Symbols" stroke="none" stroke-width="1" fill="none" fill-rule="evenodd">
        <g id="Sidebar-/-navbar-/-navbar" transform="translate(-15.000000, -895.000000)">
            <g id="Group" transform="translate(16.000000, 896.000000)">
                <circle id="Oval" stroke="#FFD24C" stroke-width="1.6" fill-rule="nonzero" cx="16" cy="16" r="16"></circle>
                <g id="people-outline" transform="translate(8.000000, 8.000000)" fill="#000000" opacity="0">
                    <g id="Group">
                        <rect id="Rectangle" x="0" y="0" width="16" height="16"></rect>
                    </g>
                </g>
                <path d="M17.4466667,15.5158974 C18.4577778,14.9415385 19.1111111,13.8071795 19.1111111,12.7589744 C19.1111111,11.265641 17.7888889,9.6 16,9.6 C14.2111111,9.6 12.8888889,11.265641 12.8888889,12.7589744 C12.8888889,13.8071795 13.5422222,14.9415385 14.5533333,15.5158974 C12.1577778,16.1046154 10.4,18.1292308 10.4,20.5128205 C10.4,20.6707692 10.54,20.8 10.7111111,20.8 L21.2888889,20.8 C21.46,20.8 21.6,20.6707692 21.6,20.5128205 C21.6,18.1292308 19.8422222,16.1046154 17.4466667,15.5158974 Z M13.5111111,12.7589744 C13.5111111,11.28 14.8333333,10.174359 16,10.174359 C17.1666667,10.174359 18.4888889,11.28 18.4888889,12.7589744 C18.4888889,14.2379487 17.1666667,15.3435897 16,15.3435897 C14.8333333,15.3435897 13.5111111,14.2379487 13.5111111,12.7589744 Z M11.0377778,20.225641 C11.1933333,17.8276923 13.3711111,15.9179487 16,15.9179487 C18.6288889,15.9179487 20.8066667,17.8276923 20.9622222,20.225641 L11.0377778,20.225641 Z" id="User" stroke="#FFD24C" stroke-width="0.84" fill="#FFD24C" fill-rule="nonzero"></path>
            </g>
        </g>
    </g>
</svg>