<?xml version="1.0" encoding="UTF-8"?>
<svg width="25px" height="22px" viewBox="0 0 25 22" version="1.1" xmlns="http://www.w3.org/2000/svg" xmlns:xlink="http://www.w3.org/1999/xlink">
    <title>Sidebar / navbar / icons /icon-archive</title>
    <g id="Symbols" stroke="none" stroke-width="1" fill="none" fill-rule="evenodd">
        <g id="Sidebar-/-navbar-/-navbar" transform="translate(-20.000000, -227.000000)" fill-rule="nonzero">
            <g id="Group" transform="translate(16.000000, 222.000000)">
                <rect id="frame" x="0" y="0" width="32" height="32"></rect>
                <g id="archive" transform="translate(4.000000, 5.000000)" fill="#FFFFFF">
                    <path d="M22.33,0 L2.31,0 C1.0346875,0 0,1.0346875 0,2.31 L0,5.39 C0,5.8135 0.3465,6.16 0.77,6.16 L1.54,6.16 L1.54,19.25 C1.54,20.5253125 2.5746875,21.56 3.85,21.56 L20.79,21.56 C22.0653125,21.56 23.1,20.5253125 23.1,19.25 L23.1,6.16 L23.87,6.16 C24.2935,6.16 24.64,5.8135 24.64,5.39 L24.64,2.31 C24.64,1.0346875 23.6053125,0 22.33,0 Z M21.56,19.25 C21.56,19.6735 21.2135,20.02 20.79,20.02 L3.85,20.02 C3.4265,20.02 3.08,19.6735 3.08,19.25 L3.08,6.16 L21.56,6.16 L21.56,19.25 Z M23.1,4.62 L1.54,4.62 L1.54,2.31 C1.54,1.8865 1.8865,1.54 2.31,1.54 L22.33,1.54 C22.7535,1.54 23.1,1.8865 23.1,2.31 L23.1,4.62 Z M9.8175,10.78 L14.8225,10.78 C15.140125,10.78 15.4,10.520125 15.4,10.2025 L15.4,9.8175 C15.4,9.499875 15.140125,9.24 14.8225,9.24 L9.8175,9.24 C9.499875,9.24 9.24,9.499875 9.24,9.8175 L9.24,10.2025 C9.24,10.520125 9.499875,10.78 9.8175,10.78 Z" id="Shape"></path>
                </g>
            </g>
        </g>
    </g>
</svg>